<svg width="555" height="386" viewBox="0 0 555 386" fill="none" xmlns="http://www.w3.org/2000/svg">
<path d="M261.714 234.294C249.21 213.582 227.523 206.709 220.398 204.788C218.453 199.423 217.864 193.661 218.683 188.013C220.298 176.917 222.933 158.882 223.19 157.564L169.313 178.53L114.515 196.948C115.555 197.806 129.126 209.96 137.468 217.445C141.716 221.255 144.956 226.057 146.9 231.423C142.659 237.464 130.403 256.637 134.061 280.554C137.517 303.14 153.256 317.436 163.737 326.982C171.303 333.851 179.763 339.663 188.888 344.263C192.908 347.147 197.497 349.138 202.349 350.105C207.2 351.072 212.202 350.991 217.02 349.866C218.666 349.483 221.833 348.671 224.8 347.756C226.108 347.35 227.772 346.833 229.675 346.164L229.99 346.047L230.304 345.935C232.193 345.229 233.802 344.563 235.068 344.034C237.927 342.836 240.885 341.429 242.394 340.669C246.811 338.444 250.702 335.301 253.807 331.451C256.913 327.601 259.16 323.131 260.399 318.342C264.46 308.964 267.234 299.081 268.645 288.959C270.594 274.93 273.521 253.855 261.714 234.294Z" fill="#D6B49A"/>
<path d="M209.128 351.205C201.785 351.199 194.628 348.903 188.656 344.628C179.511 340.013 171.03 334.182 163.445 327.296C152.959 317.762 137.114 303.355 133.636 280.616C130.265 258.584 140.132 240.366 146.416 231.357C144.486 226.143 141.317 221.478 137.182 217.762C129.063 210.474 115.284 198.123 114.243 197.28C114.185 197.23 114.14 197.167 114.113 197.095C114.087 197.023 114.079 196.946 114.092 196.871C114.106 196.795 114.14 196.724 114.19 196.666C114.24 196.608 114.305 196.564 114.378 196.539L169.178 178.118L223.044 157.166C223.115 157.139 223.193 157.131 223.268 157.143C223.343 157.156 223.414 157.188 223.472 157.238C223.53 157.287 223.575 157.351 223.6 157.423C223.625 157.494 223.631 157.572 223.616 157.647C223.361 158.962 220.686 177.275 219.114 188.076C218.319 193.579 218.872 199.192 220.727 204.433C231.321 207.323 250.562 214.992 262.08 234.073C273.967 253.764 271.02 274.981 269.071 289.022C267.655 299.17 264.875 309.081 260.808 318.485C259.547 323.327 257.27 327.845 254.126 331.737C250.982 335.629 247.045 338.805 242.577 341.054C240.933 341.881 238.02 343.262 235.22 344.431C233.902 344.983 232.344 345.626 230.507 346.315L230.441 346.347L229.812 346.572L229.746 346.593C227.886 347.242 226.28 347.736 224.916 348.165C222.015 349.063 218.897 349.881 217.108 350.287C214.492 350.894 211.814 351.205 209.128 351.205ZM115.367 197.114C118.276 199.658 130.36 210.492 137.757 217.127C142.053 220.988 145.333 225.847 147.306 231.277C147.329 231.342 147.337 231.411 147.328 231.479C147.319 231.547 147.293 231.613 147.254 231.669C141.049 240.509 131.14 258.604 134.487 280.488C137.917 302.929 153.636 317.213 164.028 326.665C171.564 333.505 179.99 339.296 189.076 343.879L189.133 343.914C193.103 346.761 197.636 348.728 202.427 349.683C207.219 350.639 212.159 350.558 216.916 349.449C218.694 349.034 221.789 348.237 224.671 347.345C226.04 346.924 227.657 346.416 229.529 345.76L229.586 345.744L230.095 345.561L230.15 345.535C232.002 344.843 233.579 344.194 234.897 343.639C237.675 342.478 240.565 341.109 242.196 340.288C246.561 338.092 250.406 334.988 253.475 331.185C256.543 327.382 258.765 322.967 259.99 318.236C259.997 318.215 260.005 318.194 260.013 318.173C264.058 308.833 266.821 298.987 268.227 288.905C270.159 274.984 273.086 253.947 261.351 234.516C249.91 215.563 230.71 208.01 220.286 205.202C220.221 205.183 220.161 205.149 220.111 205.102C220.062 205.055 220.024 204.997 220 204.933C218.038 199.5 217.445 193.667 218.272 187.951C219.7 178.118 222.047 162.056 222.656 158.239L169.473 178.927L115.367 197.114Z" fill="black"/>
<path d="M171.807 185.442C201.819 174.568 224.798 162.025 223.133 157.425C221.468 152.826 195.788 157.912 165.776 168.786C135.764 179.66 112.785 192.204 114.45 196.803C116.115 201.402 141.795 196.316 171.807 185.442Z" fill="#020202"/>
<path d="M119.966 198.907C116.873 198.907 114.578 198.377 114.055 196.937C112.912 193.792 121.032 188.585 128.037 184.76C137.754 179.459 151.104 173.638 165.638 168.369C180.171 163.1 194.156 159.017 205.007 156.866C212.839 155.317 222.408 154.125 223.542 157.261C224.677 160.398 216.566 165.615 209.561 169.441C199.843 174.741 186.496 180.563 171.96 185.829C157.424 191.095 143.444 195.181 132.59 197.334C128.354 198.172 123.61 198.907 119.966 198.907ZM217.654 156.137C215.045 156.137 211.11 156.532 205.176 157.707C194.361 159.852 180.425 163.923 165.929 169.175C151.433 174.427 138.123 180.231 128.443 185.512C114.793 192.962 114.593 195.919 114.855 196.645C115.119 197.371 117.165 199.504 132.418 196.491C143.23 194.349 157.169 190.275 171.662 185.023C186.156 179.771 199.468 173.97 209.146 168.686C222.793 161.235 222.993 158.282 222.73 157.553C222.576 157.118 221.75 156.137 217.654 156.137Z" fill="black"/>
<path d="M229.047 357.257L229.021 380.934C229.021 382.702 230.924 384.144 233.274 384.144H233.359C235.709 384.144 237.618 382.712 237.618 380.939L237.644 357.526C237.644 357.374 235.658 357.241 233.245 357.241H229.047" fill="#818181"/>
<path d="M233.357 384.572H233.265C230.693 384.572 228.584 382.936 228.584 380.934L228.61 356.823H233.237C234.408 356.823 235.523 356.854 236.381 356.905C237.558 356.981 238.078 357.032 238.078 357.526L238.052 380.945C238.037 381.464 237.9 381.968 237.652 382.422C237.403 382.875 237.051 383.262 236.624 383.553C235.672 384.235 234.527 384.592 233.357 384.572ZM229.467 357.7L229.441 380.95C229.441 382.478 231.156 383.726 233.265 383.731H233.357C234.341 383.746 235.304 383.446 236.103 382.87C236.421 382.656 236.685 382.371 236.872 382.04C237.059 381.704 237.165 381.332 237.181 380.95L237.207 357.847C235.896 357.72 234.579 357.669 233.263 357.684H229.467V357.7Z" fill="#191818"/>
<path d="M454.832 357.257L454.807 380.934C454.807 382.702 456.711 384.144 459.059 384.144H459.145C461.498 384.144 463.408 382.712 463.408 380.939L463.433 357.526C463.433 357.374 461.432 357.241 459.033 357.241H454.832" fill="#818181"/>
<path d="M459.145 384.572H459.054C456.482 384.572 454.369 382.936 454.369 380.934L454.399 356.823H459.023C460.21 356.823 461.31 356.854 462.155 356.905C463.331 356.981 463.851 357.032 463.851 357.526L463.825 380.945C463.81 381.464 463.672 381.968 463.423 382.422C463.178 382.875 462.822 383.262 462.394 383.553C461.447 384.235 460.311 384.592 459.145 384.572ZM455.255 357.7L455.229 380.95C455.229 382.478 456.945 383.726 459.054 383.731H459.145C460.128 383.746 461.091 383.446 461.89 382.87C462.211 382.656 462.471 382.371 462.659 382.04C462.847 381.704 462.954 381.332 462.97 380.95L462.995 357.847C461.681 357.72 460.367 357.669 459.048 357.684H455.255V357.7Z" fill="#191818"/>
<path d="M476.699 351.393H170.813C169.998 351.393 169.217 351.719 168.641 352.295C168.064 352.87 167.741 353.65 167.741 354.465C167.741 355.28 168.064 356.064 168.641 356.64C169.217 357.216 169.998 357.542 170.813 357.542H473.699C474.107 357.542 474.509 357.46 474.891 357.297C475.268 357.139 475.609 356.905 475.894 356.615C476.179 356.319 476.403 355.973 476.556 355.591C476.704 355.214 476.775 354.806 476.765 354.394L476.699 351.393Z" fill="#DCDBDA"/>
<path d="M473.699 357.97H170.814C169.885 357.97 168.995 357.598 168.338 356.946C167.681 356.289 167.313 355.397 167.313 354.465C167.313 353.538 167.681 352.646 168.338 351.989C168.995 351.332 169.885 350.965 170.814 350.965H477.126L477.203 354.394C477.213 354.862 477.132 355.326 476.958 355.759C476.785 356.192 476.531 356.589 476.205 356.92C475.879 357.257 475.487 357.516 475.054 357.7C474.626 357.878 474.163 357.97 473.699 357.97ZM170.814 351.821C170.112 351.821 169.44 352.101 168.944 352.595C168.448 353.095 168.17 353.767 168.17 354.465C168.17 355.168 168.448 355.84 168.944 356.334C169.44 356.834 170.112 357.109 170.814 357.109H473.699C474.051 357.109 474.397 357.043 474.723 356.905C475.049 356.767 475.339 356.569 475.589 356.314C475.833 356.064 476.027 355.764 476.154 355.438C476.286 355.107 476.347 354.76 476.337 354.409L476.276 351.831L170.814 351.821Z" fill="black"/>
<path d="M155.52 191.571C155.52 191.571 144.482 233.742 146.323 251.408C147.42 261.953 147.077 279.427 146.608 291.836C146.464 295.742 144.798 299.438 141.967 302.133C139.136 304.828 135.364 306.309 131.457 306.26C127.549 306.212 123.815 304.637 121.052 301.873C118.289 299.109 116.716 295.373 116.667 291.464C116.59 285.174 115.873 280.388 116.525 276.826C120.431 255.437 114.446 255.096 117.976 235.58C118.58 233.468 119.205 231.344 119.851 229.208C123.229 218.057 126.931 207.693 130.855 197.583C135.068 197.185 139.772 195.933 144.839 194.801C148.735 193.932 152.299 192.634 155.52 191.571Z" fill="#4EA7F1"/>
<path d="M131.655 306.685C127.607 306.671 123.726 305.069 120.846 302.224C117.966 299.38 116.315 295.518 116.25 291.469C116.224 289.245 116.112 287.181 116.015 285.34C115.838 281.989 115.683 279.093 116.112 276.763C118.113 265.867 117.51 260.431 116.936 255.176C116.364 249.992 115.832 245.098 117.564 235.517V235.477C118.176 233.344 118.808 231.189 119.442 229.096C122.514 218.949 126.015 208.89 130.457 197.44L130.554 197.194L130.817 197.168C134.092 196.862 137.696 196.024 141.512 195.138C142.572 194.893 143.65 194.641 144.747 194.398C147.731 193.684 150.674 192.812 153.565 191.785C154.18 191.575 154.785 191.373 155.38 191.178L156.125 190.93L155.928 191.693C155.816 192.113 144.927 233.988 146.739 251.379C147.831 261.875 147.505 279.19 147.039 291.864C146.901 295.849 145.219 299.625 142.347 302.391C139.476 305.158 135.641 306.698 131.655 306.685ZM118.405 235.677C116.69 245.112 117.227 249.953 117.787 255.07C118.359 260.386 118.97 265.883 116.955 276.903C116.547 279.147 116.698 281.997 116.872 285.294C116.97 287.132 117.081 289.216 117.107 291.458C117.156 295.254 118.685 298.881 121.368 301.565C124.053 304.248 127.678 305.777 131.473 305.824C135.268 305.871 138.931 304.433 141.68 301.816C144.429 299.199 146.048 295.612 146.191 291.818C146.656 279.17 146.982 261.901 145.905 251.453C144.216 235.22 153.444 198.026 154.922 192.225L153.845 192.571C150.926 193.608 147.954 194.488 144.942 195.207C143.85 195.453 142.773 195.699 141.712 195.948C137.971 196.805 134.429 197.64 131.169 197.971C126.779 209.296 123.315 219.266 120.274 229.319C119.639 231.423 119.01 233.556 118.405 235.677Z" fill="black"/>
<path d="M160.673 281.594C158.124 281.594 156.257 277.898 155.529 276.448C150.501 266.49 158.101 249.118 161.05 242.951C163.869 249.298 170.859 266.527 165.835 276.448C165.074 277.92 163.214 281.594 160.673 281.594Z" fill="#4EA7F1"/>
<path d="M160.673 282.023C157.858 282.023 155.952 278.246 155.14 276.634C150.39 267.227 156.569 251.371 160.653 242.759L161.054 241.901L161.433 242.759C165.26 251.373 170.968 267.225 166.207 276.625C165.392 278.246 163.48 282.023 160.673 282.023ZM161.025 243.977C157.023 252.609 151.468 267.465 155.901 276.248C156.58 277.591 158.384 281.165 160.671 281.165C162.957 281.165 164.758 277.591 165.441 276.248C169.885 267.462 164.775 252.612 161.025 243.977Z" fill="black"/>
<path d="M502.502 237.172C470.848 209.774 431.621 215.864 425.963 216.836C371.51 225.53 327.471 245.427 320.729 270.67C319.344 275.882 318.224 281.162 317.383 286.489C303.908 284.202 281.289 283.081 268.116 297.416L268.05 297.491C264.309 301.585 266.933 308.201 272.449 308.775C275.753 309.118 279.723 309.45 284.199 309.668C293.49 310.119 313.377 324.535 325.832 334.116C333.597 342.993 344.561 348.433 356.33 349.249H356.518C359.971 351.566 369.091 357.002 381.715 356.803C388.376 356.691 394.92 355.056 400.853 352.02L446.689 351.393C467.904 357.552 484.943 356.91 495.327 355.611C510.247 353.742 515.849 350.015 518.36 347.953C527.017 340.806 530.169 329.672 532.399 318.525C536.977 295.621 529.604 260.634 502.502 237.172Z" fill="#F8F3ED"/>
<path d="M381.069 357.256C369.524 357.256 360.72 352.575 356.396 349.695H356.299C344.434 348.873 333.373 343.391 325.536 334.445C304.957 318.631 291.038 310.429 284.179 310.111C280.206 309.917 276.245 309.616 272.404 309.216C271.06 309.079 269.782 308.57 268.713 307.745C267.643 306.921 266.825 305.815 266.35 304.55C265.866 303.322 265.738 301.98 265.983 300.682C266.228 299.384 266.835 298.182 267.733 297.214L267.799 297.142C273.696 290.727 282.03 286.747 292.579 285.305C301.69 284.062 310.827 284.982 317.029 286.009C317.862 280.811 318.957 275.658 320.311 270.57C323.56 258.413 335.645 246.865 355.266 237.176C373.807 228.027 398.23 220.842 425.897 216.422C429.966 215.724 440.899 214.274 454.532 215.95C473.17 218.237 489.399 225.279 502.782 236.859C515.365 247.814 524.695 262.026 529.741 277.935C534.192 291.833 535.287 306.283 532.822 318.617C530.734 329.038 527.75 340.783 518.629 348.291C513.96 352.132 506.357 354.669 495.378 356.044C479.525 358.031 463.122 356.615 446.633 351.831L400.955 352.458C394.991 355.484 388.417 357.119 381.726 357.241C381.507 357.256 381.283 357.256 381.069 357.256ZM356.63 348.832L356.753 348.906C361.04 351.765 369.983 356.579 381.71 356.39C388.305 356.268 394.783 354.648 400.659 351.653L400.746 351.607L446.761 350.98L446.822 350.996C463.224 355.759 479.53 357.17 495.286 355.198C506.097 353.848 513.563 351.373 518.1 347.637C527.001 340.306 529.94 328.729 531.992 318.454C536.524 295.796 529.135 260.803 502.237 237.513C471.652 211.032 433.403 216.007 426.055 217.274C398.464 221.679 374.123 228.83 355.658 237.951C336.271 247.528 324.34 258.885 321.152 270.796C319.772 275.994 318.661 281.261 317.826 286.575L317.756 287.004L317.327 286.93C304.751 284.788 281.661 283.344 268.454 297.723L268.388 297.794C267.596 298.645 267.062 299.704 266.847 300.846C266.632 301.989 266.745 303.169 267.173 304.25C267.591 305.361 268.309 306.335 269.248 307.062C270.187 307.788 271.309 308.239 272.489 308.364C276.316 308.762 280.26 309.062 284.207 309.253C291.25 309.597 305.337 317.851 326.076 333.79L326.142 333.847C333.832 342.635 344.678 348.023 356.325 348.837L356.63 348.832Z" fill="black"/>
<path d="M317.075 286.063C314.394 278.186 310.313 263.253 309.964 249.138C309.706 238.653 310.913 228.184 313.551 218.034C306.048 202.611 302.828 185.455 304.228 168.36C304.301 167.531 304.586 166.733 305.055 166.044C305.524 165.356 306.161 164.799 306.906 164.426C307.651 164.053 308.479 163.878 309.311 163.916C310.143 163.954 310.951 164.205 311.659 164.644L349.414 188.119C363.464 184.301 378.222 183.891 392.465 186.924L426.707 158.905C427.247 158.465 427.888 158.175 428.576 158.065C429.258 157.954 429.961 158.028 430.613 158.278C431.259 158.529 431.83 158.947 432.262 159.489C432.695 160.032 432.975 160.68 433.077 161.367C435.863 180.766 434.243 200.544 428.341 219.232C430.969 227.273 431.667 235.819 430.383 244.18" fill="#F8F3ED"/>
<path d="M316.669 286.2C315.097 281.583 309.936 265.263 309.524 249.149C309.265 238.678 310.463 228.221 313.085 218.079C305.598 202.626 302.389 185.447 303.791 168.331C303.859 167.428 304.161 166.558 304.667 165.806C305.172 165.054 305.864 164.447 306.675 164.043C307.49 163.628 308.398 163.432 309.312 163.472C310.225 163.513 311.113 163.789 311.888 164.274L349.486 187.653C363.485 183.88 378.171 183.471 392.359 186.458L426.442 158.562C427.033 158.073 427.751 157.751 428.509 157.628C429.273 157.506 430.052 157.588 430.771 157.866C431.489 158.144 432.12 158.608 432.599 159.211C433.082 159.813 433.393 160.533 433.505 161.295C436.296 180.713 434.687 200.509 428.795 219.22C431.402 227.288 432.089 235.855 430.796 244.234L429.935 244.103C431.208 235.809 430.516 227.331 427.914 219.355L427.868 219.223L427.914 219.092C433.795 200.465 435.41 180.751 432.629 161.415C432.538 160.804 432.288 160.227 431.901 159.744C431.514 159.262 431.01 158.89 430.429 158.667C429.854 158.445 429.228 158.379 428.616 158.477C428.01 158.575 427.435 158.833 426.956 159.225L392.552 187.384L392.353 187.341C378.181 184.322 363.49 184.73 349.501 188.531L349.323 188.579L311.41 165.003C310.76 164.596 310.015 164.365 309.248 164.33C308.482 164.296 307.719 164.461 307.035 164.809C306.358 165.146 305.78 165.653 305.357 166.279C304.933 166.906 304.68 167.632 304.62 168.386C303.222 185.407 306.428 202.492 313.9 217.848L313.969 217.991L313.929 218.146C311.3 228.256 310.097 238.685 310.356 249.129C310.754 265.123 315.881 281.34 317.444 285.928L316.669 286.2Z" fill="black"/>
<path d="M121.666 336.811H121.583C121.583 336.811 119.154 336.78 116.884 334.602C115.098 332.886 116.641 325.33 122.029 316.567C126.63 325.47 127.768 332.901 126.076 334.602C123.903 336.8 121.666 336.811 121.666 336.811Z" fill="#4EA7F1"/>
<path d="M121.669 337.24H121.583C121.474 337.24 118.956 337.18 116.593 334.913C114.389 332.8 116.67 324.469 121.675 316.329L122.072 315.683L122.421 316.358C126.707 324.669 128.46 332.809 126.393 334.893C124.121 337.18 121.786 337.229 121.675 337.229L121.669 337.24ZM122 317.444C116.742 326.236 115.787 332.955 117.178 334.293C119.302 336.331 121.563 336.383 121.586 336.383H121.663C121.706 336.383 123.775 336.32 125.778 334.302C127.105 332.952 126.493 326.405 122 317.444Z" fill="black"/>
<path d="M533.576 303.932C537.807 305.883 544.504 309.768 549.006 317.084C559.414 333.996 551.659 358.759 537.186 371.785C526.675 381.245 514.581 382.733 505.063 383.96C499.482 384.674 473.623 387.898 455.866 371.785C452.271 368.53 443.858 360.889 445.1 351.449C445.742 346.59 449.042 340.103 454.664 338.298C465.445 334.828 471.897 352.641 492.134 354.832C495.047 355.148 507.533 356.141 517.285 348.257C518.879 346.965 521.517 344.54 524.715 339.108C527.999 333.524 533.555 321.951 533.576 303.932Z" fill="#333333"/>
<path d="M493.87 385.122C478.328 385.122 464.986 380.644 455.57 372.106C451.929 368.8 443.394 361.057 444.673 351.393C445.381 346.029 448.996 339.671 454.532 337.881C459.96 336.134 464.187 339.456 469.549 343.657C475.023 347.945 481.842 353.278 492.174 354.399C496.635 354.883 507.986 355.214 517.01 347.914C518.66 346.582 521.211 344.197 524.343 338.882C530.082 329.135 533.127 317.05 533.143 303.932V303.264L533.754 303.549C540.608 306.717 545.879 311.197 549.372 316.864C554.276 324.832 555.509 335.179 552.84 345.998C550.37 356.024 544.769 365.54 537.466 372.111C526.945 381.581 514.968 383.12 505.343 384.358L505.114 384.388C501.387 384.872 497.628 385.117 493.87 385.122ZM457.424 338.275C456.533 338.278 455.647 338.42 454.796 338.699C449.602 340.371 446.2 346.419 445.523 351.505C444.306 360.721 452.607 368.255 456.151 371.469C467.583 381.831 484.923 386.115 505.023 383.532L505.252 383.502C514.759 382.279 526.589 380.761 536.911 371.469C550.915 358.856 558.987 334.087 548.654 317.31C545.359 311.955 540.435 307.683 534.014 304.607C533.896 317.619 530.821 329.607 525.097 339.316C521.894 344.749 519.266 347.208 517.565 348.583C508.292 356.085 496.666 355.728 492.103 355.249C481.526 354.108 474.596 348.674 469.04 344.334C464.798 341.018 461.294 338.275 457.424 338.275Z" fill="#191818"/>
<path d="M400.96 352.392C400.863 352.392 400.766 352.361 400.69 352.3C400.613 352.239 400.562 352.152 400.542 352.055C400.522 351.964 400.532 351.862 400.578 351.775C400.618 351.689 400.69 351.617 400.781 351.577C400.975 351.485 420.367 342.301 424.838 324.987C424.848 324.93 424.873 324.875 424.904 324.827C424.94 324.779 424.98 324.739 425.031 324.708C425.082 324.677 425.138 324.656 425.194 324.647C425.25 324.638 425.311 324.641 425.367 324.656C425.423 324.67 425.474 324.696 425.52 324.732C425.566 324.768 425.607 324.813 425.632 324.863C425.663 324.914 425.678 324.971 425.683 325.029C425.693 325.087 425.683 325.146 425.668 325.201C423.28 334.468 416.731 341.361 411.664 345.501C408.425 348.172 404.896 350.469 401.138 352.346C401.082 352.376 401.021 352.392 400.96 352.392Z" fill="#191818"/>
<path d="M392.481 186.93L426.722 158.911C427.257 158.47 427.903 158.18 428.591 158.07C429.273 157.96 429.976 158.034 430.623 158.284C431.275 158.534 431.84 158.952 432.278 159.494C432.711 160.038 432.991 160.685 433.093 161.372C434.019 167.828 434.274 174.37 434.335 184.531C434.401 194.692 430.826 204.007 428.397 219.303C419.98 205.122 407.452 193.833 392.481 186.93Z" fill="#333333"/>
<path d="M428.632 220.538L428.026 219.524C419.654 205.417 407.198 194.186 392.303 187.318L391.681 187.033L426.452 158.57C427.048 158.081 427.761 157.759 428.525 157.637C429.283 157.514 430.063 157.596 430.781 157.874C431.504 158.153 432.135 158.617 432.614 159.219C433.093 159.822 433.408 160.541 433.52 161.304C434.483 168.037 434.707 174.919 434.768 184.534C434.809 190.758 433.469 196.765 431.911 203.715C430.903 208.238 429.762 213.365 428.81 219.372L428.632 220.538ZM393.28 186.829C407.697 193.627 419.817 204.491 428.148 218.085C429.065 212.547 430.129 207.775 431.071 203.53C432.67 196.345 433.928 190.664 433.897 184.54C433.836 174.961 433.607 168.108 432.655 161.424C432.563 160.812 432.314 160.236 431.926 159.753C431.539 159.27 431.03 158.898 430.455 158.676C429.879 158.453 429.253 158.387 428.642 158.485C428.031 158.584 427.46 158.842 426.982 159.234L393.28 186.829Z" fill="#191818"/>
<path d="M357.516 350.107C357.41 350.107 357.313 350.07 357.231 350.001C356.432 349.303 354.563 347.382 354.522 344.632C354.486 342.21 355.872 340.526 356.325 339.971C358.642 337.149 362.059 336.892 366.026 336.592C368.261 336.423 370.797 336.231 373.41 335.539C378.013 334.321 382.372 331.665 386.365 327.645C386.446 327.57 386.553 327.529 386.665 327.53C386.772 327.532 386.879 327.578 386.961 327.656C387.037 327.735 387.083 327.841 387.083 327.952C387.088 328.063 387.047 328.171 386.971 328.252C382.871 332.38 378.395 335.114 373.629 336.369C370.94 337.08 368.363 337.275 366.092 337.447C362.166 337.733 359.07 337.979 356.987 340.514C356.585 341.009 355.352 342.516 355.378 344.62C355.413 347.022 357.094 348.731 357.796 349.354C357.883 349.43 357.934 349.536 357.939 349.649C357.949 349.763 357.914 349.875 357.837 349.961C357.796 350.006 357.746 350.043 357.695 350.068C357.639 350.094 357.578 350.106 357.516 350.107Z" fill="#191818"/>
<path d="M370.095 262.476C394.243 262.476 413.823 247.499 413.823 229.025C413.823 210.55 394.243 195.573 370.095 195.573C345.941 195.573 326.361 210.55 326.361 229.025C326.361 247.499 345.941 262.476 370.095 262.476Z" fill="#333333"/>
<path d="M370.095 262.904C345.743 262.904 325.933 247.705 325.933 229.024C325.933 210.343 345.743 195.144 370.095 195.144C394.441 195.144 414.251 210.343 414.251 229.024C414.251 247.705 394.441 262.904 370.095 262.904ZM370.095 196.002C346.227 196.002 326.794 210.814 326.794 229.024C326.794 247.233 346.227 262.046 370.095 262.046C393.958 262.046 413.39 247.233 413.39 229.024C413.39 210.814 393.958 196.002 370.095 196.002Z" fill="#191818"/>
<path d="M342.224 235.886C347.199 235.886 351.227 231.854 351.227 226.88C351.227 221.906 347.199 217.874 342.224 217.874C337.254 217.874 333.226 221.906 333.226 226.88C333.226 231.854 337.254 235.886 342.224 235.886Z" fill="#F8F59C"/>
<path d="M342.224 236.315C340.36 236.315 338.537 235.761 336.984 234.725C335.436 233.688 334.229 232.215 333.511 230.49C332.798 228.766 332.61 226.869 332.976 225.039C333.338 223.209 334.239 221.528 335.558 220.208C336.877 218.889 338.557 217.99 340.386 217.626C342.214 217.262 344.113 217.449 345.834 218.163C347.561 218.877 349.032 220.086 350.066 221.638C351.105 223.19 351.66 225.014 351.66 226.88C351.66 229.382 350.662 231.782 348.895 233.551C347.128 235.321 344.729 236.315 342.224 236.315ZM342.224 218.302C340.528 218.302 338.873 218.806 337.463 219.748C336.052 220.691 334.952 222.03 334.305 223.597C333.653 225.165 333.485 226.889 333.816 228.553C334.147 230.217 334.962 231.746 336.164 232.945C337.361 234.144 338.888 234.962 340.554 235.292C342.219 235.623 343.94 235.454 345.509 234.804C347.072 234.155 348.411 233.056 349.353 231.645C350.295 230.235 350.8 228.576 350.8 226.88C350.8 224.605 349.898 222.424 348.289 220.815C346.68 219.206 344.5 218.302 342.224 218.302Z" fill="#191818"/>
<path d="M432.97 161.55C432.97 161.55 412.962 188.711 410.961 195.001C409.464 199.705 416.283 197.374 419.822 195.899C419.975 195.836 420.143 195.82 420.306 195.855C420.469 195.889 420.616 195.972 420.728 196.092C420.845 196.212 420.922 196.364 420.947 196.527C420.973 196.691 420.947 196.858 420.876 197.008L418.503 202.02C418.355 202.342 418.299 202.701 418.35 203.053C418.401 203.405 418.554 203.736 418.788 204.001C419.022 204.268 419.333 204.459 419.674 204.551C420.02 204.643 420.382 204.632 420.718 204.519L423.555 203.576C423.702 203.526 423.865 203.52 424.018 203.558C424.171 203.598 424.308 203.68 424.415 203.795C424.522 203.91 424.593 204.054 424.619 204.21C424.649 204.365 424.629 204.525 424.568 204.671L423.544 209.583L428.402 219.303C434.223 200.636 435.786 180.901 432.975 161.55H432.97Z" fill="#F3D2C9"/>
<path d="M428.489 220.447L423.086 209.64L424.171 204.494C424.196 204.423 424.206 204.347 424.196 204.272C424.181 204.198 424.145 204.128 424.094 204.073C424.043 204.018 423.977 203.978 423.901 203.959C423.83 203.941 423.753 203.943 423.682 203.967L420.85 204.914C420.433 205.054 419.98 205.068 419.557 204.954C419.129 204.841 418.747 204.604 418.457 204.275C418.167 203.945 417.978 203.536 417.917 203.101C417.856 202.665 417.922 202.221 418.111 201.823L420.484 196.811C420.519 196.739 420.53 196.658 420.519 196.58C420.504 196.501 420.468 196.428 420.412 196.371C420.362 196.313 420.29 196.273 420.209 196.256C420.132 196.24 420.051 196.248 419.98 196.279C415.183 198.281 412.127 198.733 410.9 197.612C410.274 197.04 410.156 196.108 410.554 194.858C412.555 188.568 431.804 162.394 432.624 161.281L433.245 160.44L433.393 161.473C436.219 180.887 434.656 200.688 428.82 219.418L428.489 220.447ZM423.987 209.526L428.301 218.154C433.739 200.185 435.242 181.254 432.69 162.653C429.299 167.302 413.13 189.6 411.373 195.13C411.083 196.036 411.119 196.662 411.48 196.994C412.382 197.82 415.437 197.263 419.649 195.502C419.883 195.405 420.143 195.382 420.387 195.435C420.637 195.487 420.861 195.613 421.034 195.796C421.207 195.98 421.324 196.211 421.365 196.461C421.405 196.71 421.37 196.966 421.258 197.194L418.89 202.203C418.773 202.449 418.732 202.723 418.768 202.992C418.808 203.261 418.92 203.512 419.104 203.716C419.282 203.919 419.516 204.065 419.781 204.136C420.041 204.207 420.321 204.199 420.575 204.113L423.407 203.17C423.631 203.095 423.875 203.085 424.104 203.141C424.334 203.197 424.542 203.317 424.705 203.487C424.868 203.657 424.98 203.87 425.031 204.101C425.077 204.332 425.057 204.573 424.975 204.794L423.987 209.526Z" fill="black"/>
<path d="M349.226 188.139C336.694 180.365 323.693 172.1 311.156 164.326C308.564 162.719 304.394 164.789 304.357 167.84C304.279 174.361 303.214 181.592 305.214 191.57C306.292 196.957 306.772 199.742 307.86 203.436C309.323 208.401 311.211 213.232 313.502 217.874C314.977 214.968 316.698 212.194 318.646 209.583C320.291 207.378 326.239 199.742 336.938 193.572C340.834 191.331 344.953 189.51 349.226 188.139Z" fill="#333333"/>
<path d="M313.497 218.831L313.119 218.062C310.818 213.399 308.921 208.547 307.449 203.558C306.532 200.445 306.02 197.917 305.277 194.095C305.128 193.34 304.969 192.531 304.794 191.653C303.248 183.933 303.525 177.835 303.768 172.466C303.842 170.853 303.911 169.321 303.928 167.834C303.945 166.347 304.886 164.895 306.443 164.04C308.101 163.128 309.993 163.099 311.382 163.963C317.65 167.845 324.136 171.922 330.415 175.865C336.689 179.808 343.181 183.888 349.455 187.776L350.245 188.265L349.358 188.551C345.111 189.912 341.022 191.721 337.152 193.946C327.532 199.496 321.641 206.286 318.992 209.842C317.057 212.435 315.349 215.187 313.885 218.071L313.497 218.831ZM309.092 164.2C308.31 164.207 307.541 164.41 306.858 164.792C305.575 165.495 304.8 166.636 304.786 167.845C304.768 169.355 304.697 170.885 304.625 172.503C304.382 177.826 304.108 183.856 305.634 191.487C305.809 192.365 305.969 193.171 306.12 193.929C306.895 197.863 307.363 200.241 308.272 203.315C309.649 207.984 311.402 212.533 313.514 216.919C314.911 214.267 316.513 211.728 318.305 209.325C320.999 205.717 326.967 198.826 336.724 193.2C340.381 191.098 344.23 189.363 348.228 188.019C342.198 184.277 335.981 180.371 329.962 176.583C323.672 172.64 317.201 168.577 310.936 164.68C310.378 164.352 309.74 164.186 309.092 164.2Z" fill="#191818"/>
<path d="M304.356 167.268C304.356 167.268 325.903 186.12 328.566 191.058C328.724 191.344 329.391 192.665 328.897 193.262C327.955 194.406 323.922 191.524 322.078 193C321.89 193.152 321.732 193.338 321.615 193.548C321.406 193.938 321.315 194.381 321.355 194.821C321.391 195.261 321.554 195.681 321.829 196.03C322.445 196.85 323.255 198.166 323.178 199.415C323.178 199.787 323.066 200.149 322.853 200.453C322.297 201.128 321.274 201.133 320.989 201.133C319.12 201.133 318.106 199.329 318.061 199.247C317.816 199.049 317.511 198.944 317.197 198.951C316.883 198.958 316.582 199.076 316.346 199.284C316.197 199.44 316.103 199.641 316.078 199.855C316.011 200.35 316.093 200.854 316.312 201.302C316.932 202.557 316.206 206.606 315.783 208.43C315.145 211.151 314.084 213.756 312.639 216.149C310.067 210.528 306.595 201.568 304.923 190.704C304.015 184.77 303.681 178.763 303.925 172.765C304.034 170.527 304.214 168.64 304.356 167.268Z" fill="#F3D2C9"/>
<path d="M312.645 216.587H312.622C312.545 216.583 312.469 216.557 312.404 216.513C312.34 216.469 312.289 216.407 312.257 216.336C308.508 208.214 305.897 199.614 304.5 190.778C303.588 184.82 303.251 178.788 303.497 172.766C303.582 170.922 303.726 169.049 303.925 167.231C303.932 167.152 303.961 167.077 304.008 167.013C304.055 166.949 304.119 166.9 304.192 166.87C304.265 166.841 304.346 166.832 304.424 166.845C304.502 166.858 304.574 166.893 304.634 166.945C305.514 167.717 326.264 185.906 328.928 190.855C329.213 191.404 329.85 192.771 329.213 193.537C328.581 194.303 327.42 193.92 326.051 193.517C324.686 193.114 323.158 192.659 322.338 193.334C322.191 193.452 322.068 193.597 321.982 193.76C321.814 194.076 321.742 194.433 321.778 194.788C321.809 195.143 321.941 195.481 322.165 195.762C322.858 196.685 323.667 198.074 323.591 199.427C323.586 199.889 323.438 200.339 323.168 200.714C322.715 201.265 321.977 201.548 320.979 201.551C319.054 201.551 317.954 199.91 317.721 199.519C317.559 199.412 317.366 199.361 317.172 199.372C316.978 199.384 316.793 199.457 316.644 199.581C316.561 199.677 316.511 199.796 316.498 199.922C316.447 200.329 316.515 200.742 316.695 201.111C317.504 202.746 316.335 207.938 316.198 208.525C315.55 211.289 314.473 213.936 313.005 216.367C312.969 216.431 312.917 216.485 312.854 216.524C312.791 216.563 312.719 216.584 312.645 216.587ZM304.697 168.137C304.543 169.684 304.431 171.248 304.36 172.794C304.115 178.763 304.447 184.742 305.352 190.647C306.689 199.134 309.159 207.404 312.694 215.235C313.907 213.08 314.809 210.764 315.372 208.356C315.878 206.174 316.447 202.549 315.944 201.514C315.677 200.984 315.577 200.386 315.658 199.799C315.696 199.49 315.835 199.201 316.052 198.978C316.365 198.699 316.767 198.541 317.186 198.532C317.606 198.523 318.015 198.664 318.341 198.929C318.376 198.961 318.412 199.001 318.432 199.047C318.432 199.064 319.349 200.708 320.979 200.708C321.712 200.708 322.226 200.53 322.506 200.184C322.664 199.951 322.746 199.676 322.741 199.395C322.797 198.301 322.084 197.108 321.473 196.29C321.152 195.876 320.958 195.375 320.912 194.851C320.872 194.327 320.979 193.802 321.233 193.34C321.376 193.082 321.569 192.854 321.804 192.668C322.985 191.724 324.747 192.242 326.3 192.699C327.196 192.962 328.301 193.288 328.566 192.985C328.755 192.754 328.592 192.013 328.184 191.27C325.842 186.916 308.25 171.273 304.697 168.137Z" fill="black"/>
<path d="M342.224 233.312C345.778 233.312 348.656 230.432 348.656 226.88C348.656 223.327 345.778 220.447 342.224 220.447C338.675 220.447 335.797 223.327 335.797 226.88C335.797 230.432 338.675 233.312 342.224 233.312Z" fill="black"/>
<path d="M342.224 233.741C340.869 233.741 339.545 233.339 338.415 232.585C337.289 231.831 336.408 230.759 335.889 229.506C335.37 228.252 335.232 226.872 335.497 225.541C335.762 224.21 336.419 222.987 337.376 222.028C338.333 221.068 339.556 220.414 340.89 220.15C342.219 219.885 343.599 220.021 344.852 220.54C346.104 221.059 347.174 221.939 347.927 223.068C348.681 224.196 349.083 225.522 349.083 226.88C349.083 228.7 348.36 230.445 347.077 231.732C345.789 233.019 344.047 233.741 342.224 233.741ZM342.224 220.875C341.037 220.875 339.876 221.228 338.893 221.887C337.906 222.547 337.137 223.485 336.683 224.582C336.225 225.679 336.108 226.886 336.337 228.051C336.571 229.216 337.142 230.286 337.982 231.125C338.822 231.965 339.892 232.537 341.053 232.768C342.219 233 343.426 232.881 344.521 232.427C345.621 231.972 346.557 231.203 347.214 230.215C347.876 229.228 348.228 228.067 348.228 226.88C348.228 225.287 347.596 223.76 346.471 222.634C345.346 221.508 343.818 220.875 342.224 220.875Z" fill="#191818"/>
<path d="M399.962 235.886C404.932 235.886 408.96 231.854 408.96 226.88C408.96 221.906 404.932 217.874 399.962 217.874C394.986 217.874 390.958 221.906 390.958 226.88C390.958 231.854 394.986 235.886 399.962 235.886Z" fill="#F8F59C"/>
<path d="M399.956 236.315C398.093 236.315 396.269 235.761 394.721 234.725C393.168 233.688 391.961 232.215 391.243 230.49C390.53 228.766 390.347 226.869 390.709 225.039C391.07 223.209 391.972 221.528 393.29 220.208C394.609 218.889 396.29 217.99 398.118 217.626C399.946 217.262 401.846 217.449 403.567 218.163C405.293 218.877 406.765 220.086 407.799 221.638C408.838 223.19 409.393 225.014 409.393 226.88C409.393 229.382 408.394 231.782 406.627 233.551C404.86 235.321 402.462 236.315 399.956 236.315ZM399.956 218.302C398.261 218.302 396.606 218.806 395.195 219.748C393.784 220.691 392.684 222.03 392.038 223.597C391.386 225.165 391.218 226.889 391.549 228.553C391.88 230.217 392.695 231.746 393.896 232.945C395.093 234.144 396.621 234.962 398.286 235.292C399.951 235.623 401.672 235.454 403.241 234.804C404.804 234.155 406.144 233.056 407.086 231.645C408.028 230.235 408.532 228.576 408.532 226.88C408.532 224.605 407.631 222.424 406.021 220.815C404.412 219.206 402.233 218.302 399.956 218.302Z" fill="#191818"/>
<path d="M399.961 233.312C403.511 233.312 406.388 230.432 406.388 226.88C406.388 223.327 403.511 220.447 399.961 220.447C396.407 220.447 393.53 223.327 393.53 226.88C393.53 230.432 396.407 233.312 399.961 233.312Z" fill="black"/>
<path d="M399.962 233.741C398.602 233.741 397.278 233.339 396.147 232.585C395.022 231.831 394.141 230.759 393.621 229.506C393.102 228.252 392.965 226.872 393.229 225.541C393.494 224.21 394.151 222.987 395.108 222.028C396.066 221.068 397.288 220.414 398.622 220.15C399.951 219.885 401.331 220.021 402.584 220.54C403.837 221.059 404.911 221.939 405.665 223.068C406.419 224.196 406.821 225.522 406.821 226.88C406.821 228.7 406.098 230.445 404.809 231.732C403.521 233.019 401.78 233.741 399.962 233.741ZM399.962 220.875C398.77 220.875 397.614 221.228 396.626 221.887C395.638 222.547 394.869 223.485 394.416 224.582C393.958 225.679 393.84 226.886 394.075 228.051C394.304 229.216 394.874 230.286 395.714 231.125C396.555 231.965 397.624 232.537 398.79 232.768C399.951 233 401.158 232.881 402.258 232.427C403.353 231.972 404.29 231.203 404.952 230.215C405.609 229.228 405.96 228.067 405.96 226.88C405.96 225.287 405.329 223.76 404.203 222.634C403.078 221.508 401.55 220.875 399.962 220.875Z" fill="#191818"/>
<path d="M368.022 228.632L370.95 229.024L373.634 228.641C373.751 228.624 373.868 228.641 373.975 228.69C374.082 228.738 374.174 228.816 374.235 228.915C374.296 229.013 374.331 229.128 374.331 229.245C374.331 229.362 374.301 229.477 374.235 229.576L371.638 233.658C371.561 233.774 371.459 233.869 371.337 233.936C371.215 234.003 371.077 234.039 370.94 234.041C370.797 234.043 370.66 234.012 370.538 233.949C370.415 233.887 370.308 233.794 370.227 233.681L367.436 229.585C367.37 229.486 367.334 229.371 367.329 229.253C367.329 229.135 367.36 229.019 367.421 228.919C367.482 228.818 367.574 228.738 367.681 228.687C367.788 228.636 367.905 228.617 368.022 228.632Z" fill="#F3D2C9"/>
<path d="M370.925 234.48C370.716 234.479 370.512 234.426 370.329 234.326C370.14 234.226 369.988 234.082 369.871 233.908L367.08 229.813C366.968 229.647 366.902 229.452 366.897 229.251C366.897 229.05 366.948 228.852 367.054 228.68C367.161 228.509 367.314 228.372 367.492 228.286C367.676 228.2 367.879 228.168 368.078 228.195L370.935 228.578L373.562 228.201C373.761 228.173 373.96 228.203 374.138 228.286C374.321 228.369 374.474 228.502 374.581 228.669C374.688 228.836 374.749 229.03 374.749 229.228C374.749 229.428 374.693 229.622 374.586 229.79L371.989 233.873C371.877 234.052 371.724 234.199 371.536 234.303C371.352 234.406 371.149 234.462 370.935 234.465L370.925 234.48ZM367.935 229.047C367.905 229.047 367.874 229.055 367.849 229.071C367.823 229.086 367.803 229.109 367.788 229.136C367.767 229.165 367.752 229.2 367.752 229.236C367.752 229.272 367.767 229.307 367.788 229.336L370.578 233.43C370.619 233.486 370.67 233.533 370.731 233.564C370.792 233.596 370.858 233.613 370.93 233.613C371.001 233.613 371.067 233.595 371.128 233.561C371.189 233.527 371.24 233.478 371.276 233.419L373.873 229.336C373.894 229.307 373.904 229.273 373.904 229.237C373.904 229.202 373.894 229.167 373.873 229.139C373.853 229.109 373.827 229.084 373.792 229.07C373.761 229.055 373.725 229.05 373.69 229.056L370.95 229.448L367.961 229.05L367.935 229.047Z" fill="black"/>
<path d="M366.678 238.934C366.392 238.934 366.082 238.917 365.761 238.886C365.649 238.874 365.542 238.818 365.471 238.729C365.399 238.641 365.364 238.527 365.374 238.414C365.389 238.3 365.445 238.195 365.532 238.123C365.618 238.051 365.736 238.017 365.848 238.028C367.523 238.193 368.75 237.879 369.494 237.09C370.583 235.946 370.314 234.131 370.308 234.111C370.293 233.997 370.319 233.881 370.39 233.788C370.456 233.696 370.558 233.633 370.67 233.616C370.787 233.599 370.904 233.627 370.996 233.695C371.088 233.763 371.149 233.865 371.169 233.979C371.169 234.068 371.505 236.223 370.13 237.679C369.336 238.517 368.18 238.934 366.678 238.934Z" fill="black"/>
<path d="M375.034 239.22C373.537 239.22 372.386 238.803 371.607 237.97C370.232 236.515 370.553 234.359 370.568 234.271C370.589 234.157 370.65 234.055 370.741 233.986C370.833 233.919 370.95 233.89 371.062 233.908C371.179 233.925 371.281 233.987 371.347 234.08C371.414 234.172 371.444 234.289 371.429 234.402C371.429 234.434 371.164 236.246 372.244 237.387C372.992 238.173 374.214 238.485 375.89 238.319C376.002 238.308 376.114 238.342 376.206 238.414C376.292 238.487 376.348 238.592 376.358 238.705C376.374 238.819 376.338 238.932 376.267 239.021C376.19 239.109 376.088 239.166 375.976 239.177C375.635 239.202 375.33 239.22 375.034 239.22Z" fill="black"/>
<path d="M430.684 230.311C430.582 230.309 430.485 230.272 430.404 230.206C430.327 230.138 430.277 230.046 430.261 229.945C430.246 229.844 430.271 229.741 430.322 229.655C430.378 229.568 430.46 229.504 430.557 229.473L450.707 223.326C450.814 223.301 450.926 223.318 451.018 223.372C451.11 223.426 451.181 223.514 451.211 223.617C451.247 223.721 451.237 223.833 451.191 223.931C451.14 224.028 451.059 224.104 450.957 224.143L430.811 230.291C430.77 230.304 430.725 230.311 430.684 230.311Z" fill="black"/>
<path d="M450.402 237.744H450.34L431.331 234.742C431.219 234.725 431.117 234.663 431.051 234.57C430.979 234.478 430.954 234.361 430.969 234.248C430.984 234.134 431.051 234.032 431.142 233.964C431.234 233.896 431.351 233.867 431.463 233.885L450.468 236.887C450.585 236.895 450.687 236.949 450.763 237.035C450.84 237.122 450.875 237.235 450.865 237.349C450.855 237.462 450.804 237.568 450.717 237.642C450.631 237.716 450.519 237.753 450.402 237.744Z" fill="black"/>
<path d="M293.21 238.602C293.097 238.615 292.983 238.581 292.893 238.51C292.804 238.438 292.747 238.334 292.735 238.22C292.722 238.107 292.755 237.993 292.827 237.903C292.899 237.814 293.002 237.757 293.116 237.744L310.407 233.885C310.515 233.867 310.625 233.892 310.715 233.953C310.805 234.014 310.869 234.107 310.893 234.214C310.917 234.32 310.9 234.431 310.844 234.525C310.789 234.619 310.701 234.688 310.596 234.72L293.305 238.579C293.274 238.591 293.243 238.599 293.21 238.602Z" fill="black"/>
<path d="M311.216 230.025H311.15L292.144 227.023C292.088 227.014 292.034 226.994 291.985 226.965C291.936 226.935 291.894 226.896 291.86 226.851C291.827 226.805 291.802 226.752 291.788 226.697C291.775 226.642 291.773 226.584 291.781 226.528C291.79 226.472 291.809 226.418 291.839 226.369C291.868 226.32 291.907 226.277 291.953 226.244C291.999 226.21 292.051 226.186 292.107 226.172C292.162 226.159 292.219 226.156 292.276 226.165L311.282 229.167C311.396 229.176 311.501 229.229 311.575 229.316C311.649 229.402 311.686 229.515 311.678 229.628C311.669 229.742 311.615 229.848 311.529 229.922C311.442 229.997 311.33 230.033 311.216 230.025Z" fill="black"/>
<path d="M97.229 59.0515C109.968 64.8752 124.467 77.9531 141.732 94.6417C168.252 120.276 184.832 161.667 190.033 177.269C188.384 178.035 181.393 165.066 179.745 165.833C174.237 150.754 163.376 126.134 140.017 102.075C120.925 82.4105 104.291 67.8604 90.8584 61.4759L97.229 59.0515Z" fill="#8BB174"/>
<path d="M189.871 177.74C188.853 177.74 187.419 175.871 184.541 171.805C182.969 169.587 180.597 166.236 179.905 166.236L179.482 166.43L179.347 165.984C170.373 141.396 157.409 120.604 139.715 102.378C118.565 80.5827 102.971 67.7112 90.6817 61.8671L89.7728 61.4387L97.2494 58.5793L97.4154 58.6537C109.616 64.2349 123.535 76.4431 142.035 94.3263C153.565 105.477 164.406 120.673 174.263 139.514C183.317 156.849 188.594 171.599 190.44 177.132L190.563 177.495L190.214 177.655C190.108 177.709 189.99 177.738 189.871 177.74ZM180.033 165.381C181.045 165.53 182.477 167.408 185.238 171.307C186.524 173.129 188.345 175.702 189.342 176.56C186.484 168.194 169.95 122.523 141.435 94.9443C123.081 77.2119 109.267 65.0836 97.2153 59.5202L91.939 61.5212C104.183 67.5971 119.597 80.4258 140.326 101.775C158.032 120.018 171.028 140.821 180.033 165.381Z" fill="black"/>
<path d="M168.041 186.612C146.697 168.6 116.807 146.731 106.838 142.9C81.1788 133.036 58.4 128.733 43.6494 128.587C45.2347 126.96 46.823 125.334 48.4139 123.71C62.4185 123.647 82.5991 127.538 105.289 135.432C114.389 138.603 149.224 161.301 174.169 184.222L168.041 186.612Z" fill="#8BB174"/>
<path d="M167.96 187.104L167.763 186.941C147.034 169.435 116.849 147.2 106.684 143.3C83.8559 134.531 60.2771 129.179 43.6428 129.016H42.6396L48.23 123.298H48.7388C63.3152 123.298 83.9506 127.569 105.415 135.046C114.369 138.165 148.857 160.417 174.44 183.936L174.946 184.402L167.96 187.104ZM44.6521 128.172C61.3144 128.527 84.5108 133.859 107.006 142.499C117.221 146.425 147.36 168.597 168.138 186.12L173.368 184.073C148.334 161.201 113.76 138.837 105.146 135.837C83.7734 128.404 63.2465 124.138 48.753 124.138H48.6074L44.6521 128.172Z" fill="black"/>
<path d="M190.331 177.789C185.255 170.956 173.308 150.016 166.346 143.26C152.442 129.796 136.35 118.796 118.759 110.729L112.383 113.142C131.89 122.448 149.58 135.164 164.62 150.691C169.678 155.92 180.179 175.213 184.174 180.426L190.331 177.789Z" fill="#8BB174"/>
<path d="M184.037 180.957L183.835 180.694C182.231 178.599 179.668 174.384 176.69 169.507C172.294 162.288 167.315 154.105 164.303 150.991C149.309 135.492 131.66 122.807 112.191 113.537L111.294 113.088L118.774 110.258L118.939 110.332C136.581 118.412 152.715 129.445 166.646 142.954C171.257 147.426 178.062 158.107 183.529 166.685C186.435 171.259 188.959 175.19 190.674 177.521L191 177.955L184.037 180.957ZM113.472 113.197C132.675 122.473 150.091 135.067 164.917 150.399C167.995 153.582 173.003 161.807 177.418 169.066C180.136 173.53 182.709 177.755 184.306 179.911L189.654 177.624C187.925 175.234 185.535 171.48 182.794 167.173C177.35 158.625 170.576 147.986 166.037 143.583C152.222 130.183 136.229 119.231 118.742 111.195L113.472 113.197Z" fill="black"/>
<path d="M377.81 334.525L387.526 356.253C382.678 356.803 377.774 356.706 372.951 355.968C372.951 355.968 364.605 355 359.065 350.823C355.21 347.928 355.026 345.889 354.98 345.281C354.756 342.496 356.59 340.526 357.303 339.848L357.516 339.653C360.088 337.406 364.661 337.101 364.946 337.08C367.874 336.901 371.918 336.143 377.81 334.525Z" fill="#333333"/>
<path d="M381.278 357.032C378.467 357.037 375.661 356.818 372.885 356.391C372.554 356.355 364.381 355.367 358.805 351.179C356.131 349.178 354.7 347.205 354.553 345.329C354.329 342.533 355.984 340.512 357.007 339.554L357.231 339.348C359.772 337.124 364.091 336.726 364.916 336.669C368.007 336.46 372.188 335.622 377.693 334.096L378.049 333.999L388.157 356.584L387.587 356.65C385.494 356.895 383.386 357.022 381.278 357.032ZM377.56 335.037C372.172 336.5 368.047 337.324 364.967 337.527C364.483 337.558 360.17 337.907 357.791 339.994C357.705 340.071 357.623 340.146 357.598 340.172C356.686 341.029 355.199 342.822 355.398 345.261C355.525 346.879 356.844 348.64 359.309 350.491C364.697 354.536 372.906 355.535 372.992 355.54C377.591 356.248 382.26 356.365 386.884 355.891L377.56 335.037Z" fill="#191818"/>
<path d="M290.289 311.003L298.926 285.348C293.059 285.262 287.233 286.331 281.778 288.493C277.851 290.133 274.191 292.35 270.917 295.07C270.632 295.313 266.63 298.752 266.487 302.065C266.487 302.246 266.487 302.414 266.487 302.426C266.553 305.219 268.582 307 269.363 307.572L269.597 307.743C271.989 309.436 274.907 309.248 279.209 309.353C281.635 309.413 282.847 309.445 284.353 309.639C286.37 309.906 288.358 310.363 290.289 311.003Z" fill="#333333"/>
<path d="M290.289 311.435C290.243 311.434 290.198 311.426 290.155 311.412C288.249 310.782 286.287 310.334 284.296 310.077C282.81 309.882 281.601 309.853 279.194 309.79C278.654 309.79 278.134 309.768 277.634 309.759C274.098 309.702 271.543 309.659 269.345 308.104L269.099 307.921C267.993 307.063 266.124 305.239 266.056 302.434C266.056 302.434 266.056 302.243 266.056 302.042C266.21 298.571 270.186 295.12 270.629 294.737C273.951 291.993 277.66 289.754 281.635 288.093C287.142 285.914 293.022 284.835 298.943 284.919C299.012 284.92 299.079 284.937 299.139 284.969C299.199 285 299.251 285.046 299.291 285.102C299.33 285.158 299.355 285.222 299.364 285.29C299.374 285.358 299.366 285.427 299.344 285.491L290.706 311.146C290.677 311.232 290.62 311.307 290.545 311.358C290.47 311.41 290.38 311.437 290.289 311.435ZM298.292 285.771C292.69 285.771 287.139 286.829 281.93 288.891C278.049 290.519 274.429 292.712 271.189 295.398C271.02 295.541 267.048 298.923 266.901 302.082C266.901 302.24 266.901 302.388 266.901 302.408C266.961 304.862 268.617 306.491 269.608 307.243L269.828 307.406C271.811 308.807 274.255 308.836 277.637 308.904C278.139 308.904 278.66 308.921 279.206 308.935C281.641 308.996 282.864 309.027 284.393 309.222C286.297 309.47 288.175 309.885 290.006 310.462L298.32 285.769L298.292 285.771Z" fill="#191818"/>
<path d="M38.499 42.0364L30.482 37.662C28.4833 36.5713 26.8517 34.9132 25.794 32.8959C24.7358 30.8791 24.2988 28.5938 24.5372 26.3289L25.2088 19.979C25.4777 17.4334 26.2961 14.977 27.6069 12.7794C28.9181 10.5817 30.6908 8.69484 32.8026 7.25013C34.0273 6.41264 35.4512 5.9129 36.9305 5.80185C38.4099 5.69029 39.8922 5.97097 41.2285 6.61539C41.9995 6.97453 42.7893 7.29139 43.5949 7.56444C52.9053 10.8563 61.3745 16.1645 68.3974 23.1094L55.973 45.6477L38.499 42.0364Z" fill="#DA4E22"/>
<path d="M56.193 46.1311L38.3503 42.4429L38.2932 42.4113L30.2763 38.04C28.2022 36.9101 26.5105 35.1893 25.4146 33.0966C24.3192 31.0034 23.8696 28.632 24.1227 26.2836L24.7943 19.9332C25.0678 17.3259 25.9055 14.8094 27.2484 12.5583C28.5912 10.3072 30.4072 8.37492 32.5714 6.89607C33.8598 6.01681 35.357 5.49263 36.9122 5.37546C38.4674 5.25829 40.0257 5.55325 41.4312 6.22976C42.1889 6.58126 42.9645 6.89251 43.7548 7.16199C53.1243 10.4717 61.6459 15.8145 68.7086 22.8068L68.9403 23.0325L56.193 46.1311ZM38.6477 41.6278L55.75 45.1648L67.8658 23.1868C60.9345 16.3947 52.6019 11.2012 43.4518 7.97096C42.632 7.69638 41.8279 7.37748 41.0426 7.01579C39.7731 6.40398 38.3656 6.13805 36.9606 6.24401C35.5556 6.34946 34.203 6.82425 33.0399 7.61945C30.978 9.02749 29.2471 10.868 27.9674 13.0127C26.6877 15.1574 25.8897 17.5552 25.629 20.0391L24.9573 26.389C24.7231 28.5699 25.1411 30.7711 26.1586 32.714C27.1761 34.6569 28.7476 36.254 30.6735 37.3024L38.6477 41.6278Z" fill="black"/>
<path d="M46.053 34.4634L45.8555 34.4776C43.3434 34.6605 40.9571 35.6498 39.052 37.2983C37.147 38.9468 35.8245 41.1658 35.2806 43.6263L34.5147 47.0919C33.7218 50.6807 34.2453 54.4357 35.99 57.6705C37.7346 60.9053 40.5838 63.4045 44.0181 64.7122L67.5944 73.6897L71.2237 47.9008L54.9331 36.8393C52.3253 35.0686 49.1961 34.2311 46.053 34.4634Z" fill="#DA4E22"/>
<path d="M67.9457 74.2822L43.8664 65.1157C40.3363 63.7713 37.4067 61.2018 35.6126 57.8763C33.8186 54.5508 33.2798 50.6904 34.0951 47.0007L34.861 43.5382C35.414 40.9819 36.7823 38.6747 38.7597 36.9641C40.7366 35.253 43.2161 34.2311 45.8244 34.0518L46.0214 34.0375C49.2582 33.8072 52.4791 34.6697 55.1674 36.4878L71.6815 47.7012L67.9457 74.2822ZM46.0846 34.8923L45.887 34.9066C43.463 35.0731 41.1587 36.0227 39.3209 37.6131C37.483 39.2035 36.212 41.3482 35.6982 43.7241L34.9323 47.1861C34.1791 50.6736 34.696 54.3155 36.3897 57.4556C38.0834 60.5956 40.8425 63.0271 44.1693 64.3123L67.2455 73.0983L70.7613 48.1128L54.7045 37.1995C52.1751 35.4883 49.1446 34.6758 46.0989 34.8923H46.0846Z" fill="black"/>
<path d="M87.858 18.6866L78.6749 6.50994C76.9226 4.18291 74.5439 2.403 71.8175 1.37907C69.091 0.354622 66.1293 0.127923 63.2785 0.725983L60.2689 1.35767C58.813 1.66129 57.4549 2.31946 56.3147 3.27462C55.175 4.22979 54.2884 5.45239 53.7349 6.83292C53.1808 8.21345 52.9766 9.70911 53.1406 11.188C53.3041 12.6663 53.8306 14.0815 54.6729 15.3071L62.3899 26.2576L86.5717 35.0095L87.858 18.6866Z" fill="#DA4E22"/>
<path d="M86.9546 35.607L62.118 26.6178L54.3215 15.5562C53.4421 14.2725 52.8931 12.7911 52.7236 11.244C52.5535 9.69737 52.7684 8.13193 53.3479 6.68823C53.9279 5.24403 54.8552 3.96538 56.0474 2.96589C57.24 1.9659 58.6603 1.27615 60.1834 0.957767L63.1955 0.328625C66.1201 -0.277076 69.1562 -0.0422242 71.9524 1.00616C74.7492 2.05455 77.1915 3.87368 78.9978 6.25267L88.2781 18.5465L88.2639 18.7095L86.9546 35.607ZM62.6614 25.9031L86.1862 34.4175L87.4038 18.8298L78.3205 6.78146C76.612 4.52932 74.3011 2.80645 71.655 1.81308C69.0085 0.819197 66.1354 0.595058 63.3672 1.16612L60.3545 1.79831C58.9709 2.08817 57.6795 2.71476 56.5958 3.62305C55.5116 4.53186 54.6688 5.69384 54.1413 7.00611C53.6137 8.31837 53.4182 9.74067 53.5714 11.1472C53.7252 12.5532 54.2233 13.8996 55.0218 15.0672L62.6614 25.9031Z" fill="black"/>
<path d="M67.9855 57.996C78.266 57.996 86.6002 49.6589 86.6002 39.3747C86.6002 29.0905 78.266 20.7533 67.9855 20.7533C57.7049 20.7533 49.3707 29.0905 49.3707 39.3747C49.3707 49.6589 57.7049 57.996 67.9855 57.996Z" fill="#F8F59C"/>
<path d="M67.9768 58.4168C64.8786 58.4153 61.8277 57.6583 59.089 56.2105C56.3498 54.7627 54.0053 52.6685 52.2586 50.1092C50.5119 47.5499 49.4155 44.6023 49.0652 41.5234C48.7148 38.4445 49.1207 35.3263 50.2481 32.4394C51.3751 29.5531 53.189 26.9851 55.533 24.9586C57.8771 22.9321 60.6794 21.5083 63.6982 20.8109C66.7164 20.1135 69.8595 20.1629 72.8543 20.9561C75.8491 21.7487 78.6051 23.2602 80.8834 25.36C83.7046 27.9571 85.6754 31.3457 86.5391 35.0823C87.4027 38.8184 87.1186 42.7287 85.7238 46.3013C84.329 49.8733 81.8887 52.9411 78.7223 55.1025C75.5558 57.2645 71.8103 58.4194 67.9768 58.4168ZM67.9911 21.1914C63.7532 21.193 59.6492 22.6759 56.3885 25.3829C53.1279 28.0905 50.9147 31.8526 50.133 36.0191C49.3509 40.1857 50.0485 44.4944 52.1053 48.2009C54.1622 51.9069 57.4488 54.778 61.3969 56.3175C65.3456 57.857 69.7077 57.968 73.7292 56.6313C77.7506 55.2951 81.1788 52.5947 83.4215 48.9976C85.6642 45.4006 86.5798 41.1327 86.0105 36.932C85.4412 32.7313 83.4225 28.8618 80.3034 25.9917C76.9496 22.8985 72.5528 21.1843 67.9911 21.1914Z" fill="#191818"/>
<path d="M72.2381 18.681L71.3291 25.6657C70.9665 28.442 71.6295 31.0752 73.1873 33.0482L85.6652 48.853L92.9819 67.9491C94.4934 65.3668 95.7868 62.6633 96.8491 59.8661C96.8491 59.8661 99.6097 52.0954 99.2929 43.395C98.721 27.2469 87.3314 14.4009 85.4284 12.3056C84.6167 11.324 83.5167 10.624 82.2844 10.3041C79.9062 9.73202 77.9314 10.9928 76.9053 11.6449C73.4817 13.8206 72.4927 17.5516 72.2381 18.681Z" fill="#DA4E22"/>
<path d="M92.8939 68.9155L85.2858 49.0679L72.8502 33.3202C71.2155 31.2499 70.5265 28.5138 70.9039 25.6005L71.8215 18.5786C72.233 16.7401 73.4134 13.3494 76.6802 11.2735C77.7033 10.6245 79.8237 9.27201 82.3964 9.87822C83.7184 10.2165 84.8983 10.9663 85.766 12.0198C88.8953 15.465 99.1758 27.9362 99.7335 43.3696C100.048 52.0557 97.2927 59.9211 97.2667 60.0011C96.1907 62.8253 94.8839 65.5563 93.3598 68.1666L92.8939 68.9155ZM72.6618 18.7559L71.7528 25.7207C71.407 28.388 72.0385 30.8954 73.5219 32.7823L86.0431 48.639L86.066 48.6991L93.0624 66.9572C94.362 64.6256 95.494 62.2049 96.4494 59.7123C96.4753 59.6435 99.1733 51.9243 98.8647 43.4154C98.3157 28.2622 88.1981 15.9994 85.1111 12.6001C84.358 11.6836 83.3334 11.03 82.1846 10.733C79.9841 10.2073 78.129 11.3851 77.1344 12.0168C74.1391 13.9067 73.0473 17.0432 72.6618 18.7559Z" fill="black"/>
<path d="M67.2797 73.7269L53.161 67.1997C50.2695 65.8584 48.0202 63.4351 46.8973 60.4509C45.775 57.4667 45.8687 54.1611 47.1586 51.2457L50.0938 44.6187C51.7336 40.9182 54.7137 37.9763 58.4337 36.3849C62.1542 34.7935 66.3391 34.6707 70.1462 36.041L87.0605 42.1454C90.4363 43.367 93.288 45.7154 95.1355 48.7949C96.9825 51.8743 97.7118 55.4963 97.201 59.051C96.4356 62.6893 94.7073 66.0545 92.1962 68.7952C85.6973 75.757 76.4454 75.3708 74.7991 75.2908C72.2249 75.1767 69.6858 74.649 67.2797 73.7269Z" fill="#DA4E22"/>
<path d="M75.8542 75.7483C75.4601 75.7483 75.1026 75.7483 74.7909 75.7285C72.1673 75.6113 69.5799 75.0703 67.1284 74.1273H67.0999L52.9899 67.5884C50.0042 66.1906 47.6831 63.6817 46.5205 60.5961C45.3584 57.5106 45.4471 54.0929 46.7675 51.0715L49.7002 44.4444C51.3929 40.6518 54.454 37.6381 58.2717 36.0059C62.09 34.3742 66.3829 34.2438 70.2923 35.6411L87.2067 41.745C90.6716 43.0079 93.5976 45.4225 95.4961 48.5855C97.3945 51.748 98.1497 55.4668 97.6359 59.1198V59.1514C96.8547 62.8661 95.0887 66.3016 92.5226 69.0983C87.0809 74.9108 79.67 75.7483 75.8542 75.7483ZM67.4375 73.3469C69.7999 74.2521 72.2926 74.7713 74.8195 74.8849C78.0348 75.0219 86.1378 74.6791 91.8826 68.5263C94.3391 65.8462 96.0298 62.5549 96.7784 58.9971C97.2621 55.5417 96.5461 52.0251 94.749 49.0348C92.9524 46.0445 90.1837 43.7618 86.9062 42.5688L69.9924 36.4618C66.2872 35.1373 62.2188 35.2606 58.6007 36.8072C54.9826 38.3543 52.0814 41.2101 50.4773 44.8046L47.5421 51.4347C46.3123 54.2493 46.2303 57.4336 47.3134 60.3083C48.3966 63.183 50.5598 65.5202 53.3413 66.8223L67.4375 73.3469Z" fill="black"/>
<path d="M17.9726 97.4914L16.8008 93.4461C16.0624 90.8964 16.2371 88.1695 17.2943 85.735C18.3514 83.3005 20.2244 81.3117 22.5909 80.111C24.7098 79.0387 27.0854 78.5776 29.4513 78.7799C31.8173 78.9816 34.0803 79.839 35.9869 81.2546C39.5852 82.4614 55.8645 88.3509 64.2273 105.411C67.1269 111.374 68.7106 117.89 68.8715 124.519C68.8792 124.941 68.7727 125.359 68.5639 125.727C68.3547 126.095 68.0506 126.399 67.6835 126.61C67.3163 126.82 66.8992 126.927 66.4766 126.921C66.0534 126.915 65.6399 126.795 65.2794 126.574L17.9726 97.4914Z" fill="#DA4E22"/>
<path d="M66.5112 127.361C65.9938 127.359 65.4871 127.214 65.0477 126.941L17.6039 97.7782L16.3863 93.5724C15.6224 90.9275 15.8037 88.0987 16.8991 85.5735C17.9945 83.0478 19.9357 80.9831 22.3882 79.7345C24.5647 78.6214 27.008 78.138 29.4437 78.3372C31.8799 78.5369 34.2117 79.4115 36.1784 80.8639C42.1803 82.8822 56.7853 89.2637 64.6021 105.217C67.5399 111.231 69.1399 117.81 69.2922 124.502C69.31 125.003 69.1903 125.5 68.9454 125.937C68.7004 126.375 68.3399 126.737 67.903 126.984C67.4803 127.229 67.0001 127.359 66.5112 127.361ZM18.3382 97.2148L65.4963 126.209C65.7922 126.392 66.1318 126.492 66.4796 126.498C66.8269 126.505 67.1702 126.417 67.4722 126.245C67.7741 126.072 68.0242 125.821 68.1953 125.519C68.3669 125.216 68.4534 124.873 68.4458 124.525C68.2971 117.955 66.7292 111.495 63.8504 105.589C56.1334 89.87 41.7001 83.6112 35.8413 81.6382L35.7756 81.6158L35.7211 81.5756C33.8807 80.2057 31.6935 79.3784 29.4075 79.1874C27.1216 78.9964 24.8274 79.4492 22.7854 80.4951C20.5096 81.651 18.7074 83.5654 17.6905 85.9072C16.673 88.2495 16.5039 90.873 17.2123 93.3264L18.3382 97.2148Z" fill="black"/>
<path d="M4.65342 137.176L9.5467 140.821C11.0057 141.905 12.5797 142.825 14.2393 143.566C16.2305 144.444 18.2766 145.192 20.3645 145.805C24.8829 147.131 36.0292 150.396 48.4246 145.833C57.9305 142.334 63.8382 135.826 66.9196 131.578C67.132 131.294 67.2649 130.959 67.3056 130.607C67.3458 130.255 67.2924 129.898 67.1498 129.574C67.0072 129.249 66.7811 128.968 66.4949 128.76C66.2082 128.551 65.8716 128.423 65.5187 128.387L11.7013 122.283C9.79928 122.067 7.8764 122.438 6.19031 123.346C4.50472 124.254 3.13691 125.656 2.26967 127.364C1.44725 129.018 1.2349 130.909 1.67132 132.705C2.10723 134.5 3.16339 136.084 4.65342 137.176Z" fill="#DA4E22"/>
<path d="M35.0265 148.612C28.4532 148.612 23.1571 147.057 20.2504 146.205C18.1442 145.589 16.0807 144.834 14.0738 143.946C12.3842 143.193 10.7826 142.257 9.29819 141.153L4.40236 137.519C2.82677 136.37 1.71053 134.699 1.25119 132.804C0.792367 130.909 1.0205 128.912 1.89588 127.169C2.80742 125.388 4.23839 123.927 5.99934 122.978C7.76029 122.029 9.76822 121.638 11.7563 121.857L65.565 127.955C65.9913 128.001 66.3977 128.158 66.7439 128.411C67.0902 128.664 67.3637 129.003 67.5373 129.395C67.7115 129.787 67.7787 130.218 67.7339 130.644C67.6886 131.07 67.5317 131.477 67.2797 131.824C63.8846 136.507 57.8852 142.805 48.5855 146.231C44.2422 147.821 39.6514 148.627 35.0265 148.612ZM4.90804 136.819L9.80998 140.452C11.2414 141.52 12.788 142.424 14.4201 143.149C16.3919 144.03 18.4197 144.78 20.4902 145.396C25.1376 146.759 36.021 149.947 48.285 145.433C57.3795 142.085 63.2531 135.915 66.5769 131.329C66.7419 131.104 66.8448 130.839 66.8743 130.561C66.9038 130.284 66.8595 130.003 66.7455 129.748C66.6355 129.494 66.4593 129.273 66.2357 129.11C66.0121 128.946 65.7494 128.844 65.4734 128.816L11.6534 122.709C9.83747 122.51 8.00471 122.869 6.39756 123.737C4.7904 124.605 3.48573 125.941 2.65618 127.57C1.87908 129.129 1.67895 130.913 2.09092 132.606C2.5034 134.299 3.50152 135.791 4.90804 136.819Z" fill="black"/>
<path d="M0.726164 108.228C1.33725 110.789 2.49425 113.188 4.11821 115.261C5.74217 117.333 7.79441 119.031 10.1349 120.236L26.5461 128.685C27.6466 129.116 29.2558 129.717 31.225 130.348C35.4176 131.712 39.7206 132.707 44.0863 133.322C51.8803 134.248 60.4798 131.79 65.3614 130.06C65.8324 129.893 66.2658 129.634 66.6365 129.3C67.0072 128.964 67.3087 128.56 67.5231 128.108C67.737 127.657 67.8602 127.167 67.8851 126.668C67.9101 126.169 67.8363 125.67 67.6682 125.199C64.7472 117.111 60.4426 112.454 58.0166 110.2C53.5348 106.04 48.0961 103.264 43.7487 101.051C40.9968 99.6457 38.1741 98.3834 35.2918 97.2688L21.3157 93.4063C16.6929 92.1369 11.7563 92.7365 7.57136 95.0757L6.1679 95.8592C4.04029 97.0492 2.35828 98.8999 1.37595 101.132C0.39414 103.363 0.166001 105.855 0.726164 108.228Z" fill="#DA4E22"/>
<path d="M47.6994 133.959C46.4798 133.963 45.2612 133.894 44.0497 133.753C41.3915 133.436 36.4014 132.464 31.0936 130.763C29.5104 130.254 27.9272 129.691 26.3893 129.09L26.3495 129.073L9.93829 120.622C7.54181 119.389 5.44069 117.652 3.77904 115.529C2.11739 113.407 0.934946 110.95 0.312147 108.328C-0.269914 105.861 -0.0336349 103.271 0.984843 100.95C2.00383 98.6289 3.75002 96.7023 5.96012 95.4618L7.36308 94.6784C11.6488 92.2734 16.7122 91.6646 21.4451 92.9861L35.4496 96.8597C38.3457 97.9809 41.1827 99.2494 43.9493 100.659C48.3339 102.898 53.7868 105.68 58.3114 109.88C62.5982 113.848 65.8736 118.952 68.0745 125.047C68.2625 125.572 68.345 126.128 68.317 126.684C68.2895 127.24 68.1525 127.786 67.9131 128.289C67.6743 128.792 67.3382 129.242 66.9242 129.615C66.5107 129.988 66.0274 130.275 65.5019 130.46C60.7919 132.147 54.1784 133.959 47.6994 133.959ZM26.7208 128.299C28.2358 128.893 29.7961 129.442 31.3569 129.945C36.6041 131.629 41.5284 132.59 44.1525 132.902C51.5492 133.779 59.6976 131.624 65.2335 129.659C65.6516 129.511 66.0366 129.283 66.3661 128.986C66.695 128.689 66.9629 128.33 67.1528 127.929C67.3433 127.529 67.4523 127.094 67.4742 126.651C67.4955 126.208 67.4299 125.765 67.2796 125.348C65.125 119.378 61.9153 114.392 57.7396 110.515C53.3041 106.398 47.9077 103.653 43.572 101.432C40.8379 100.037 38.034 98.7833 35.1721 97.6748L21.2164 93.8179C16.701 92.5607 11.8719 93.1414 7.78319 95.4333L6.38278 96.2168C4.33513 97.366 2.71727 99.1506 1.77263 101.3C0.827996 103.451 0.608528 105.85 1.14679 108.136C1.7426 110.637 2.87209 112.979 4.45786 115.003C6.04312 117.026 8.04748 118.682 10.3329 119.858L26.7208 128.299Z" fill="black"/>
<path d="M105.232 85.8924C104.807 85.8847 104.385 85.9708 103.997 86.1451C103.609 86.3188 103.265 86.576 102.987 86.8985C102.71 87.221 102.507 87.6005 102.393 88.0101C102.279 88.4201 102.257 88.8501 102.328 89.2693C103.471 96.0395 106.381 110.975 110.428 114.75C115.707 119.673 124.19 148.021 147.783 142.042C163.983 137.936 159.004 121.022 154.288 110.815C151.676 105.142 147.529 100.314 142.316 96.877C137.137 93.495 131.503 90.8669 125.584 89.0717C118.981 87.0722 112.131 86.0019 105.232 85.8924Z" fill="#DA4E22"/>
<path d="M141.5 143.291C127.15 143.291 119.285 129.825 114.349 121.362C112.717 118.566 111.308 116.15 110.142 115.072C106.115 111.318 103.257 97.3457 101.91 89.3402C101.828 88.8588 101.853 88.3651 101.984 87.8939C102.115 87.4232 102.348 86.9871 102.666 86.6168C102.985 86.2464 103.381 85.951 103.827 85.7518C104.273 85.5526 104.758 85.4538 105.246 85.4635C112.187 85.5715 119.08 86.6494 125.724 88.6657C131.678 90.4726 137.345 93.117 142.555 96.5194C147.838 99.9972 152.039 104.888 154.682 110.635C158.017 117.851 161.281 127.947 157.894 135.051C156.142 138.728 152.778 141.222 147.891 142.456C145.804 143 143.657 143.281 141.5 143.291ZM105.177 86.3183C104.819 86.3193 104.465 86.3977 104.14 86.5496C103.816 86.7009 103.528 86.9214 103.297 87.195C103.066 87.4691 102.897 87.7905 102.803 88.1359C102.709 88.4818 102.691 88.844 102.751 89.1975C103.82 95.5474 106.735 110.721 110.719 114.435C111.977 115.607 113.348 117.957 115.086 120.93C120.594 130.365 129.814 146.153 147.668 141.628C152.29 140.455 155.465 138.119 157.1 134.683C160.344 127.878 157.14 118.045 153.884 110.995C151.309 105.393 147.213 100.626 142.063 97.2372C136.921 93.8791 131.328 91.2683 125.453 89.4833C118.884 87.492 112.071 86.4268 105.209 86.3183H105.177Z" fill="black"/>
<path d="M200.074 173.701C200.895 173.272 192.321 90.0727 168.313 58.051C144.305 26.0294 138.589 20.8827 138.589 20.8827C138.589 20.8827 138.017 45.1851 148.306 62.3394C158.595 79.4941 170.599 108.085 174.029 114.375C177.459 120.665 190.034 178.133 190.034 178.133L200.074 173.701Z" fill="#8BB174"/>
<path d="M189.728 178.736L189.616 178.224C189.488 177.652 177.012 120.756 173.651 114.58C172.542 112.548 170.547 108.205 168.021 102.707C162.799 91.3478 154.911 74.1844 147.937 62.5594C137.702 45.4964 138.16 21.1171 138.16 20.871L138.183 19.9393L138.874 20.5653C139.108 20.7737 144.896 26.1033 168.655 57.7933C181.096 74.3759 189.156 104.397 193.723 126.657C198.799 151.385 200.82 172.403 200.523 173.744C200.51 173.816 200.481 173.885 200.439 173.944C200.396 174.004 200.341 174.054 200.277 174.09H200.248L189.728 178.736ZM139.017 21.9204C139.057 26.7207 139.763 47.2549 148.677 62.1193C155.671 73.7814 163.574 90.9734 168.801 102.347C171.322 107.83 173.314 112.162 174.408 114.169C177.692 120.196 189.008 171.451 190.342 177.529L199.702 173.415C199.84 171.093 197.681 150.205 192.877 126.812C188.324 104.654 180.302 74.7763 167.969 58.3251C148.694 32.5989 141.172 24.1848 139.017 21.9204Z" fill="black"/>
</svg>
